:SAMPLES-PER-SECOND 30
:FULLY-SPECIFIED
:DEGREES
424
root  -59.1678 33.9447 32.3062 -171.218 20.278 -177.742
RightUpLeg  -22.7254 3.11997 -3.70889
RightLeg  23.6996 4.48486 1.62765
RightFoot  1.7028 0.00282518 0.29337
RightToes  -27.9838 -0.130287 -0.237712
Spine  -0.00372527 -0.307419 0.600893
Spine1  -0.0322325 -0.437694 1.80273
HEad  -61.3746 -14.7794 14.2726
LeftShoulder1  -1.94126e-019 -3.10601e-018 -2.51263e-017
LeftArm  3.25508 14.4709 -81.9338
LeftForeArm  26.4028 -38.6785 -7.31147
LeftHand  -0.28452 -0.542142 5.66427
RightShoulder  -4.96962e-017 0 -2.36833e-017
RightArm  -16.8332 -8.52231 81.0107
RightForeArm  52.0929 25.1759 2.71784
RightHand  -0.382265 -1.65615 -11.7428
LeftUpLeg  -14.8963 -16.8116 15.1852
LeftLeg  21.6977 9.35726 3.02377
LeftFoot  1.05676 -0.00169876 0.34577
LeftToes  -38.1089 1.34695e-006 1.12385e-007
425
root  -60.3922 33.8864 32.0545 -171.903 23.6736 179.919
RightUpLeg  -24.6708 2.52977 -7.90601
RightLeg  25.0084 8.15389 3.16532
RightFoot  2.54521 -0.00115266 0.524574
RightToes  -31.8149 -0.156616 -0.26438
Spine  0.0950366 -0.666172 -0.16424
Spine1  0.127653 -1.15368 0.276497
HEad  -61.4751 -15.4162 14.6939
LeftShoulder1  -1.94126e-019 -3.10601e-018 -2.51263e-017
LeftArm  5.16586 12.4626 -81.9369
LeftForeArm  28.3115 -34.2938 -5.9914
LeftHand  -0.321382 -2.134 5.15429
RightShoulder  -4.96962e-017 0 -2.36833e-017
RightArm  -15.0099 -8.70019 82.5691
RightForeArm  52.9555 29.5613 3.58761
RightHand  -0.44457 -1.22429 -12.31
LeftUpLeg  -13.3758 -11.9803 10.5641
LeftLeg  19.8235 8.09445 2.3308
LeftFoot  -0.335896 -0.000146685 0.111402
LeftToes  -36.8682 1.34695e-006 1.12385e-007
426
root  -61.6541 33.96 31.821 -172.433 26.5111 177.214
RightUpLeg  -26.543 1.35575 -12.0244
RightLeg  24.908 10.9311 4.20951
RightFoot  4.43979 -0.0222008 1.03663
RightToes  -34.1125 -0.173241 -0.279509
Spine  0.0762349 -0.841101 -1.07266
Spine1  0.0627469 -1.50058 -1.53258
HEad  -62.2018 -16.1857 14.7695
LeftShoulder1  -1.94126e-019 -3.10601e-018 -2.51263e-017
LeftArm  8.40229 10.187 -81.5452
LeftForeArm  30.2373 -29.8738 -4.8051
LeftHand  -0.277426 -2.54902 4.2708
RightShoulder  -4.96962e-017 0 -2.36833e-017
RightArm  -13.5761 -9.98244 83.752
RightForeArm  53.4325 33.3634 4.41103
RightHand  -0.470062 -1.27822 -13.1864
LeftUpLeg  -13.5211 -7.60553 5.84276
LeftLeg  19.0531 6.68579 1.83043
LeftFoot  -0.388333 -0.000158141 0.114786
LeftToes  -33.0546 1.34695e-006 1.12385e-007
427
root  -62.6377 34.0797 31.6169 -172.21 29.5877 176.652
RightUpLeg  -27.6519 2.10331 -13.2159
RightLeg  23.5569 7.46437 2.68545
RightFoot  6.28345 -0.0285389 1.0072
RightToes  -31.0418 -0.15116 -0.259141
Spine  0.0168532 -0.725321 -1.23244
Spine1  -0.0510935 -1.28284 -1.83298
HEad  -62.6759 -16.514 12.6137
LeftShoulder1  -1.94126e-019 -3.10601e-018 -2.51263e-017
LeftArm  10.1893 8.6971 -81.6981
LeftForeArm  33.1021 -26.0964 -4.11106
LeftHand  -0.292091 -2.82089 4.35636
RightShoulder  -4.96962e-017 0 -2.36833e-017
RightArm  -11.7495 -11.5948 83.7944
RightForeArm  53.9621 35.6834 4.93903
RightHand  -0.492888 -1.06973 -13.1838
LeftUpLeg  -13.8963 -6.27243 3.63151
LeftLeg  19.2095 8.04532 2.22414
LeftFoot  -0.443262 -0.000950297 0.0986834
LeftToes  -31.6727 1.34695e-006 1.12385e-007
428
root  -63.3459 34.2509 31.376 -172.029 33.2147 177.264
RightUpLeg  -28.086 1.61201 -11.3829
RightLeg  24.1975 0.0240114 0.00422469
RightFoot  5.44237 0.0165981 0.178788
RightToes  -24.1131 -0.105554 -0.209042
Spine  0.111321 -0.331344 -1.12451
Spine1  0.142975 -0.502819 -1.61342
HEad  -62.6382 -15.9331 10.6626
LeftShoulder1  -1.94126e-019 -3.10601e-018 -2.51263e-017
LeftArm  8.99954 8.30218 -81.6009
LeftForeArm  37.3062 -23.6014 -3.873
LeftHand  -0.305934 -3.10999 4.41734
RightShoulder  -4.96962e-017 0 -2.36833e-017
RightArm  -9.9935 -12.4545 83.4557
RightForeArm  54.7039 34.8658 4.70671
RightHand  -0.551101 -0.457711 -12.9721
LeftUpLeg  -12.9976 -6.49945 2.65281
LeftLeg  18.6279 11.6871 3.09253
LeftFoot  -0.4223 -0.000321971 0.0741067
LeftToes  -29.735 1.34695e-006 1.12385e-007
429
root  -63.8759 34.4462 31.1554 -171.718 36.4801 178.279
RightUpLeg  -27.3022 -0.603482 -8.10318
RightLeg  25.5107 -2.79851 -1.12573
RightFoot  3.10908 0.013699 0.0305567
RightToes  -21.5577 -0.0903116 -0.189227
Spine  0.0938744 -0.164856 -0.866476
Spine1  0.115246 -0.181473 -1.09054
HEad  -62.1155 -14.6628 8.45419
LeftShoulder1  -1.94126e-019 -3.10601e-018 -2.51263e-017
LeftArm  6.32892 9.64977 -81.0809
LeftForeArm  38.2056 -22.319 -3.75071
LeftHand  -0.37042 -2.55199 5.6309
RightShoulder  -4.96962e-017 0 -2.36833e-017
RightArm  -9.08667 -12.5616 83.1573
RightForeArm  56.0147 31.102 3.78761
RightHand  -0.562092 0.223 -11.6855
LeftUpLeg  -11.3561 -6.79331 2.11852
LeftLeg  16.8137 15.4046 3.5438
LeftFoot  -0.129508 -3.84347e-005 0.127314
LeftToes  -26.4245 1.34695e-006 1.12385e-007
430
root  -64.348 34.5769 30.9468 -171.807 39.7321 178.312
RightUpLeg  -26.3615 -3.90586 -5.15926
RightLeg  28.042 -2.26394 -1.03238
RightFoot  2.27247 0.00863811 0.0902601
RightToes  -24.128 -0.105646 -0.209156
Spine  -0.0359362 -0.0743955 -0.913325
Spine1  -0.143246 -0.0209576 -1.16552
HEad  -61.7368 -13.0481 6.6659
LeftShoulder1  -1.94126e-019 -3.10601e-018 -2.51263e-017
LeftArm  3.37055 12.0889 -79.7359
LeftForeArm  35.2489 -22.2909 -3.694
LeftHand  -0.389959 -1.76033 6.51002
RightShoulder  -4.96962e-017 0 -2.36833e-017
RightArm  -10.3741 -12.1421 83.3726
RightForeArm  57.5128 25.3849 2.538
RightHand  -0.560873 0.738657 -10.723
LeftUpLeg  -9.5363 -4.93297 0.932571
LeftLeg  13.9284 17.2068 3.05909
LeftFoot  0.261016 -0.000188759 0.244551
LeftToes  -23.2033 1.34695e-006 1.12385e-007
431
root  -64.7786 34.601 30.7368 -171.956 41.9839 177.76
RightUpLeg  -25.5196 -8.98603 -2.65789
RightLeg  31.3643 -0.162012 -0.0964845
RightFoot  1.19808 0.00336338 0.171179
RightToes  -25.9301 -0.116923 -0.222708
Spine  -0.267535 -0.201978 -1.13306
Spine1  -0.60426 -0.295343 -1.58429
HEad  -61.2535 -12.0366 6.21221
LeftShoulder1  -1.94126e-019 -3.10601e-018 -2.51263e-017
LeftArm  -0.0876093 15.014 -78.1273
LeftForeArm  31.8218 -22.9543 -3.71198
LeftHand  -0.36983 -1.17581 6.6843
RightShoulder  -4.96962e-017 0 -2.36833e-017
RightArm  -13.3936 -11.796 83.556
RightForeArm  57.3862 19.0872 1.34656
RightHand  -0.523961 0.0379114 -11.2535
LeftUpLeg  -8.73923 -2.45887 -0.377464
LeftLeg  11.9595 16.7128 2.39413
LeftFoot  0.697339 -0.00128653 0.373016
LeftToes  -23.9948 1.34695e-006 1.12385e-007
